<?xml version="1.0" encoding="UTF-8" standalone="no"?>
<svg
   height="2160"
   viewBox="0 0 63.219074 2160"
   width="63.219074"
   version="1.1"
   id="svg168"
   sodipodi:docname="pattern.svg"
   inkscape:version="1.2.2 (b0a8486541, 2022-12-01)"
   xmlns:inkscape="http://www.inkscape.org/namespaces/inkscape"
   xmlns:sodipodi="http://sodipodi.sourceforge.net/DTD/sodipodi-0.dtd"
   xmlns="http://www.w3.org/2000/svg"
   xmlns:svg="http://www.w3.org/2000/svg">
  <defs
     id="defs172" />
  <sodipodi:namedview
     id="namedview170"
     pagecolor="#ffffff"
     bordercolor="#000000"
     borderopacity="0.25"
     inkscape:showpageshadow="2"
     inkscape:pageopacity="0.0"
     inkscape:pagecheckerboard="0"
     inkscape:deskcolor="#d1d1d1"
     showgrid="false"
     inkscape:zoom="3.9031887"
     inkscape:cx="28.950689"
     inkscape:cy="1122.1594"
     inkscape:window-width="1440"
     inkscape:window-height="852"
     inkscape:window-x="0"
     inkscape:window-y="0"
     inkscape:window-maximized="1"
     inkscape:current-layer="svg168" />
  <g
     fill="#c03a31"
     id="g166">
    <g
       transform="matrix(0,1.1137089,1.103716,0,6.128194,-2418.57)"
       id="g82">
      <path
         d="m 2258.3674,25.560105 -26.0554,-25.97254299 -25.9726,26.05543399 26.0555,25.972543 z m -25.9725,13.052585 -13.0471,-12.980746 12.9863,-13.03048 13.025,12.986271 z"
         id="path2" />
      <path
         d="m 2225.862,25.615366 6.5108,6.493136 6.4931,-6.511372 -6.5113,-6.493136 z"
         id="path4" />
      <path
         d="m 2262.6723,8.2126567 -13.025,-12.9807454 h -13.0084 l 26.0555,25.9725427 25.9725,-26.0554338 h -13.0084 z"
         id="path6" />
      <path
         d="m 2184.6771,25.692731 -12.9863,13.024954 0.028,13.008376 25.9724,-26.055434 -26.0555,-25.97254353 V 12.706459 Z"
         id="path8" />
      <path
         d="m 2178.1731,25.703783 -6.5154,-6.493136 v 13.008376 z"
         id="path10" />
      <path
         d="m 2214.9654,-4.7073019 -12.9807,13.024954 -13.0305,-12.9807454 h -13.0028 l 26.0554,25.9730953 25.9728,-26.0559864 z"
         id="path12" />
      <path
         d="m 2256.146,-4.7620101 6.5158,6.4931358 6.4925,-6.51524 z"
         id="path14" />
      <path
         d="m 2195.4586,-4.6730403 6.5153,6.4931358 6.493,-6.5152401 z"
         id="path16" />
      <path
         d="M 2293.0933,51.509991 V 38.507694 l -13.025,-12.986824 12.9808,-13.024954 V -0.50693384 L 2267.076,25.5485 Z"
         id="path18" />
      <path
         d="m 2286.5449,25.509818 6.5152,6.493136 v -13.00285 z"
         id="path20" />
      <path
         d="m 2379.8423,25.560105 -26.0554,-25.97254299 -25.9726,26.05543399 26.0555,25.972543 z m -25.9725,13.052585 -13.0471,-12.980746 12.9863,-13.03048 13.025,12.986271 z"
         id="path22" />
      <path
         d="m 2347.3369,25.615366 6.5108,6.493136 6.4931,-6.511372 -6.5113,-6.493136 z"
         id="path24" />
      <path
         d="m 2384.1472,8.2126567 -13.025,-12.9807454 h -13.0084 l 26.0555,25.9725427 25.9725,-26.0554338 h -13.0084 z"
         id="path26" />
      <path
         d="m 2306.152,25.692731 -12.9863,13.024954 0.028,13.008376 25.9724,-26.055434 -26.0555,-25.97254353 V 12.706459 Z"
         id="path28" />
      <path
         d="m 2299.648,25.703783 -6.5154,-6.493136 v 13.008376 z"
         id="path30" />
      <path
         d="m 2336.4403,-4.7073019 -12.9807,13.024954 -13.0305,-12.9807454 h -13.0028 l 26.0554,25.9730953 25.9728,-26.0559864 z"
         id="path32" />
      <path
         d="m 2377.6209,-4.7620101 6.5158,6.4931358 6.4925,-6.51524 z"
         id="path34" />
      <path
         d="m 2316.9335,-4.6730403 6.5153,6.4931358 6.493,-6.5152401 z"
         id="path36" />
      <path
         d="M 2414.5682,51.509991 V 38.507694 L 2401.5432,25.52087 2414.524,12.495916 V -0.50693384 L 2388.5509,25.5485 Z"
         id="path38" />
      <path
         d="m 2408.0198,25.509818 6.5152,6.493136 v -13.00285 z"
         id="path40" />
      <path
         d="m 2500.4085,25.560105 -26.0554,-25.97254299 -25.9726,26.05543399 26.0555,25.972543 z m -25.9725,13.052585 -13.0471,-12.980746 12.9863,-13.03048 13.025,12.986271 z"
         id="path42" />
      <path
         d="m 2467.9031,25.615366 6.5108,6.493136 6.4931,-6.511372 -6.5113,-6.493136 z"
         id="path44" />
      <path
         d="m 2504.7134,8.2126567 -13.025,-12.9807454 H 2478.68 l 26.0555,25.9725427 25.9725,-26.0554338 h -13.0084 z"
         id="path46" />
      <path
         d="m 2426.7182,25.692731 -12.9863,13.024954 0.028,13.008376 25.9724,-26.055434 -26.0555,-25.97254353 V 12.706459 Z"
         id="path48" />
      <path
         d="m 2420.2142,25.703783 -6.5154,-6.493136 v 13.008376 z"
         id="path50" />
      <path
         d="m 2457.0065,-4.7073019 -12.9807,13.024954 -13.0305,-12.9807454 h -13.0028 l 26.0554,25.9730953 25.9728,-26.0559864 z"
         id="path52" />
      <path
         d="m 2498.1871,-4.7620101 6.5158,6.4931358 6.4925,-6.51524 z"
         id="path54" />
      <path
         d="m 2437.4997,-4.6730403 6.5153,6.4931358 6.493,-6.5152401 z"
         id="path56" />
      <path
         d="M 2535.1344,51.509991 V 38.507694 l -13.025,-12.986824 12.9808,-13.024954 V -0.50693384 L 2509.1171,25.5485 Z"
         id="path58" />
      <path
         d="m 2528.586,25.509818 6.5152,6.493136 v -13.00285 z"
         id="path60" />
      <path
         d="m 2621.8107,25.315925 -26.0554,-25.97254299 -25.9726,26.05543399 26.0555,25.972543 z m -25.9725,13.052585 -13.0471,-12.980746 12.9863,-13.03048 13.025,12.986271 z"
         id="path62" />
      <path
         d="m 2589.3053,25.371186 6.5108,6.493136 6.4931,-6.511372 -6.5113,-6.493136 z"
         id="path64" />
      <path
         d="m 2626.1156,7.9684767 -13.025,-12.9807454 h -13.0084 l 26.0555,25.9725427 25.9725,-26.0554338 h -13.0084 z"
         id="path66" />
      <path
         d="m 2548.1204,25.448551 -12.9863,13.024954 0.028,13.008376 25.9724,-26.055434 -26.0555,-25.97254353 V 12.462279 Z"
         id="path68" />
      <path
         d="m 2541.6164,25.459603 -6.5154,-6.493136 v 13.008376 z"
         id="path70" />
      <path
         d="m 2578.4087,-4.9514819 -12.9807,13.024954 -13.0305,-12.9807454 h -13.0028 l 26.0554,25.9730953 25.9728,-26.0559864 z"
         id="path72" />
      <path
         d="m 2619.5893,-5.0061901 6.5158,6.4931358 6.4925,-6.51524 z"
         id="path74" />
      <path
         d="m 2558.9019,-4.9172203 6.5153,6.4931358 6.493,-6.5152401 z"
         id="path76" />
      <path
         d="M 2656.5366,51.265811 V 38.263514 l -13.025,-12.986824 12.9808,-13.024954 V -0.75111384 L 2630.5193,25.30432 Z"
         id="path78" />
      <path
         d="m 2649.9882,25.265638 6.5152,6.493136 v -13.00285 z"
         id="path80" />
    </g>
    <g
       transform="matrix(0,1.1137089,1.103716,0,5.623609,-1878.6084)"
       id="g164">
      <path
         d="m 2258.3674,25.560105 -26.0554,-25.97254299 -25.9726,26.05543399 26.0555,25.972543 z m -25.9725,13.052585 -13.0471,-12.980746 12.9863,-13.03048 13.025,12.986271 z"
         id="path84" />
      <path
         d="m 2225.862,25.615366 6.5108,6.493136 6.4931,-6.511372 -6.5113,-6.493136 z"
         id="path86" />
      <path
         d="m 2262.6723,8.2126567 -13.025,-12.9807454 h -13.0084 l 26.0555,25.9725427 25.9725,-26.0554338 h -13.0084 z"
         id="path88" />
      <path
         d="m 2184.6771,25.692731 -12.9863,13.024954 0.028,13.008376 25.9724,-26.055434 -26.0555,-25.97254353 V 12.706459 Z"
         id="path90" />
      <path
         d="m 2178.1731,25.703783 -6.5154,-6.493136 v 13.008376 z"
         id="path92" />
      <path
         d="m 2214.9654,-4.7073019 -12.9807,13.024954 -13.0305,-12.9807454 h -13.0028 l 26.0554,25.9730953 25.9728,-26.0559864 z"
         id="path94" />
      <path
         d="m 2256.146,-4.7620101 6.5158,6.4931358 6.4925,-6.51524 z"
         id="path96" />
      <path
         d="m 2195.4586,-4.6730403 6.5153,6.4931358 6.493,-6.5152401 z"
         id="path98" />
      <path
         d="M 2293.0933,51.509991 V 38.507694 l -13.025,-12.986824 12.9808,-13.024954 V -0.50693384 L 2267.076,25.5485 Z"
         id="path100" />
      <path
         d="m 2286.5449,25.509818 6.5152,6.493136 v -13.00285 z"
         id="path102" />
      <path
         d="m 2379.8423,25.560105 -26.0554,-25.97254299 -25.9726,26.05543399 26.0555,25.972543 z m -25.9725,13.052585 -13.0471,-12.980746 12.9863,-13.03048 13.025,12.986271 z"
         id="path104" />
      <path
         d="m 2347.3369,25.615366 6.5108,6.493136 6.4931,-6.511372 -6.5113,-6.493136 z"
         id="path106" />
      <path
         d="m 2384.1472,8.2126567 -13.025,-12.9807454 h -13.0084 l 26.0555,25.9725427 25.9725,-26.0554338 h -13.0084 z"
         id="path108" />
      <path
         d="m 2306.152,25.692731 -12.9863,13.024954 0.028,13.008376 25.9724,-26.055434 -26.0555,-25.97254353 V 12.706459 Z"
         id="path110" />
      <path
         d="m 2299.648,25.703783 -6.5154,-6.493136 v 13.008376 z"
         id="path112" />
      <path
         d="m 2336.4403,-4.7073019 -12.9807,13.024954 -13.0305,-12.9807454 h -13.0028 l 26.0554,25.9730953 25.9728,-26.0559864 z"
         id="path114" />
      <path
         d="m 2377.6209,-4.7620101 6.5158,6.4931358 6.4925,-6.51524 z"
         id="path116" />
      <path
         d="m 2316.9335,-4.6730403 6.5153,6.4931358 6.493,-6.5152401 z"
         id="path118" />
      <path
         d="M 2414.5682,51.509991 V 38.507694 L 2401.5432,25.52087 2414.524,12.495916 V -0.50693384 L 2388.5509,25.5485 Z"
         id="path120" />
      <path
         d="m 2408.0198,25.509818 6.5152,6.493136 v -13.00285 z"
         id="path122" />
      <path
         d="m 2500.4085,25.560105 -26.0554,-25.97254299 -25.9726,26.05543399 26.0555,25.972543 z m -25.9725,13.052585 -13.0471,-12.980746 12.9863,-13.03048 13.025,12.986271 z"
         id="path124" />
      <path
         d="m 2467.9031,25.615366 6.5108,6.493136 6.4931,-6.511372 -6.5113,-6.493136 z"
         id="path126" />
      <path
         d="m 2504.7134,8.2126567 -13.025,-12.9807454 H 2478.68 l 26.0555,25.9725427 25.9725,-26.0554338 h -13.0084 z"
         id="path128" />
      <path
         d="m 2426.7182,25.692731 -12.9863,13.024954 0.028,13.008376 25.9724,-26.055434 -26.0555,-25.97254353 V 12.706459 Z"
         id="path130" />
      <path
         d="m 2420.2142,25.703783 -6.5154,-6.493136 v 13.008376 z"
         id="path132" />
      <path
         d="m 2457.0065,-4.7073019 -12.9807,13.024954 -13.0305,-12.9807454 h -13.0028 l 26.0554,25.9730953 25.9728,-26.0559864 z"
         id="path134" />
      <path
         d="m 2498.1871,-4.7620101 6.5158,6.4931358 6.4925,-6.51524 z"
         id="path136" />
      <path
         d="m 2437.4997,-4.6730403 6.5153,6.4931358 6.493,-6.5152401 z"
         id="path138" />
      <path
         d="M 2535.1344,51.509991 V 38.507694 l -13.025,-12.986824 12.9808,-13.024954 V -0.50693384 L 2509.1171,25.5485 Z"
         id="path140" />
      <path
         d="m 2528.586,25.509818 6.5152,6.493136 v -13.00285 z"
         id="path142" />
      <path
         d="m 2621.8107,25.315925 -26.0554,-25.97254299 -25.9726,26.05543399 26.0555,25.972543 z m -25.9725,13.052585 -13.0471,-12.980746 12.9863,-13.03048 13.025,12.986271 z"
         id="path144" />
      <path
         d="m 2589.3053,25.371186 6.5108,6.493136 6.4931,-6.511372 -6.5113,-6.493136 z"
         id="path146" />
      <path
         d="m 2626.1156,7.9684767 -13.025,-12.9807454 h -13.0084 l 26.0555,25.9725427 25.9725,-26.0554338 h -13.0084 z"
         id="path148" />
      <path
         d="m 2548.1204,25.448551 -12.9863,13.024954 0.028,13.008376 25.9724,-26.055434 -26.0555,-25.97254353 V 12.462279 Z"
         id="path150" />
      <path
         d="m 2541.6164,25.459603 -6.5154,-6.493136 v 13.008376 z"
         id="path152" />
      <path
         d="m 2578.4087,-4.9514819 -12.9807,13.024954 -13.0305,-12.9807454 h -13.0028 l 26.0554,25.9730953 25.9728,-26.0559864 z"
         id="path154" />
      <path
         d="m 2619.5893,-5.0061901 6.5158,6.4931358 6.4925,-6.51524 z"
         id="path156" />
      <path
         d="m 2558.9019,-4.9172203 6.5153,6.4931358 6.493,-6.5152401 z"
         id="path158" />
      <path
         d="M 2656.5366,51.265811 V 38.263514 l -13.025,-12.986824 12.9808,-13.024954 V -0.75111384 L 2630.5193,25.30432 Z"
         id="path160" />
      <path
         d="m 2649.9882,25.265638 6.5152,6.493136 v -13.00285 z"
         id="path162" />
    </g>
  </g>
  <g
     fill="#c03a31"
     id="g446"
     transform="matrix(1,0,0,-1,3.938168e-7,2160.0001)">
    <g
       transform="matrix(0,1.1137089,1.103716,0,6.128194,-2418.57)"
       id="g362">
      <path
         d="m 2258.3674,25.560105 -26.0554,-25.97254299 -25.9726,26.05543399 26.0555,25.972543 z m -25.9725,13.052585 -13.0471,-12.980746 12.9863,-13.03048 13.025,12.986271 z"
         id="path282" />
      <path
         d="m 2225.862,25.615366 6.5108,6.493136 6.4931,-6.511372 -6.5113,-6.493136 z"
         id="path284" />
      <path
         d="m 2262.6723,8.2126567 -13.025,-12.9807454 h -13.0084 l 26.0555,25.9725427 25.9725,-26.0554338 h -13.0084 z"
         id="path286" />
      <path
         d="m 2184.6771,25.692731 -12.9863,13.024954 0.028,13.008376 25.9724,-26.055434 -26.0555,-25.97254353 V 12.706459 Z"
         id="path288" />
      <path
         d="m 2178.1731,25.703783 -6.5154,-6.493136 v 13.008376 z"
         id="path290" />
      <path
         d="m 2214.9654,-4.7073019 -12.9807,13.024954 -13.0305,-12.9807454 h -13.0028 l 26.0554,25.9730953 25.9728,-26.0559864 z"
         id="path292" />
      <path
         d="m 2256.146,-4.7620101 6.5158,6.4931358 6.4925,-6.51524 z"
         id="path294" />
      <path
         d="m 2195.4586,-4.6730403 6.5153,6.4931358 6.493,-6.5152401 z"
         id="path296" />
      <path
         d="M 2293.0933,51.509991 V 38.507694 l -13.025,-12.986824 12.9808,-13.024954 V -0.50693384 L 2267.076,25.5485 Z"
         id="path298" />
      <path
         d="m 2286.5449,25.509818 6.5152,6.493136 v -13.00285 z"
         id="path300" />
      <path
         d="m 2379.8423,25.560105 -26.0554,-25.97254299 -25.9726,26.05543399 26.0555,25.972543 z m -25.9725,13.052585 -13.0471,-12.980746 12.9863,-13.03048 13.025,12.986271 z"
         id="path302" />
      <path
         d="m 2347.3369,25.615366 6.5108,6.493136 6.4931,-6.511372 -6.5113,-6.493136 z"
         id="path304" />
      <path
         d="m 2384.1472,8.2126567 -13.025,-12.9807454 h -13.0084 l 26.0555,25.9725427 25.9725,-26.0554338 h -13.0084 z"
         id="path306" />
      <path
         d="m 2306.152,25.692731 -12.9863,13.024954 0.028,13.008376 25.9724,-26.055434 -26.0555,-25.97254353 V 12.706459 Z"
         id="path308" />
      <path
         d="m 2299.648,25.703783 -6.5154,-6.493136 v 13.008376 z"
         id="path310" />
      <path
         d="m 2336.4403,-4.7073019 -12.9807,13.024954 -13.0305,-12.9807454 h -13.0028 l 26.0554,25.9730953 25.9728,-26.0559864 z"
         id="path312" />
      <path
         d="m 2377.6209,-4.7620101 6.5158,6.4931358 6.4925,-6.51524 z"
         id="path314" />
      <path
         d="m 2316.9335,-4.6730403 6.5153,6.4931358 6.493,-6.5152401 z"
         id="path316" />
      <path
         d="M 2414.5682,51.509991 V 38.507694 L 2401.5432,25.52087 2414.524,12.495916 V -0.50693384 L 2388.5509,25.5485 Z"
         id="path318" />
      <path
         d="m 2408.0198,25.509818 6.5152,6.493136 v -13.00285 z"
         id="path320" />
      <path
         d="m 2500.4085,25.560105 -26.0554,-25.97254299 -25.9726,26.05543399 26.0555,25.972543 z m -25.9725,13.052585 -13.0471,-12.980746 12.9863,-13.03048 13.025,12.986271 z"
         id="path322" />
      <path
         d="m 2467.9031,25.615366 6.5108,6.493136 6.4931,-6.511372 -6.5113,-6.493136 z"
         id="path324" />
      <path
         d="m 2504.7134,8.2126567 -13.025,-12.9807454 H 2478.68 l 26.0555,25.9725427 25.9725,-26.0554338 h -13.0084 z"
         id="path326" />
      <path
         d="m 2426.7182,25.692731 -12.9863,13.024954 0.028,13.008376 25.9724,-26.055434 -26.0555,-25.97254353 V 12.706459 Z"
         id="path328" />
      <path
         d="m 2420.2142,25.703783 -6.5154,-6.493136 v 13.008376 z"
         id="path330" />
      <path
         d="m 2457.0065,-4.7073019 -12.9807,13.024954 -13.0305,-12.9807454 h -13.0028 l 26.0554,25.9730953 25.9728,-26.0559864 z"
         id="path332" />
      <path
         d="m 2498.1871,-4.7620101 6.5158,6.4931358 6.4925,-6.51524 z"
         id="path334" />
      <path
         d="m 2437.4997,-4.6730403 6.5153,6.4931358 6.493,-6.5152401 z"
         id="path336" />
      <path
         d="M 2535.1344,51.509991 V 38.507694 l -13.025,-12.986824 12.9808,-13.024954 V -0.50693384 L 2509.1171,25.5485 Z"
         id="path338" />
      <path
         d="m 2528.586,25.509818 6.5152,6.493136 v -13.00285 z"
         id="path340" />
      <path
         d="m 2621.8107,25.315925 -26.0554,-25.97254299 -25.9726,26.05543399 26.0555,25.972543 z m -25.9725,13.052585 -13.0471,-12.980746 12.9863,-13.03048 13.025,12.986271 z"
         id="path342" />
      <path
         d="m 2589.3053,25.371186 6.5108,6.493136 6.4931,-6.511372 -6.5113,-6.493136 z"
         id="path344" />
      <path
         d="m 2626.1156,7.9684767 -13.025,-12.9807454 h -13.0084 l 26.0555,25.9725427 25.9725,-26.0554338 h -13.0084 z"
         id="path346" />
      <path
         d="m 2548.1204,25.448551 -12.9863,13.024954 0.028,13.008376 25.9724,-26.055434 -26.0555,-25.97254353 V 12.462279 Z"
         id="path348" />
      <path
         d="m 2541.6164,25.459603 -6.5154,-6.493136 v 13.008376 z"
         id="path350" />
      <path
         d="m 2578.4087,-4.9514819 -12.9807,13.024954 -13.0305,-12.9807454 h -13.0028 l 26.0554,25.9730953 25.9728,-26.0559864 z"
         id="path352" />
      <path
         d="m 2619.5893,-5.0061901 6.5158,6.4931358 6.4925,-6.51524 z"
         id="path354" />
      <path
         d="m 2558.9019,-4.9172203 6.5153,6.4931358 6.493,-6.5152401 z"
         id="path356" />
      <path
         d="M 2656.5366,51.265811 V 38.263514 l -13.025,-12.986824 12.9808,-13.024954 V -0.75111384 L 2630.5193,25.30432 Z"
         id="path358" />
      <path
         d="m 2649.9882,25.265638 6.5152,6.493136 v -13.00285 z"
         id="path360" />
    </g>
    <g
       transform="matrix(0,1.1137089,1.103716,0,5.623609,-1878.6084)"
       id="g444">
      <path
         d="m 2258.3674,25.560105 -26.0554,-25.97254299 -25.9726,26.05543399 26.0555,25.972543 z m -25.9725,13.052585 -13.0471,-12.980746 12.9863,-13.03048 13.025,12.986271 z"
         id="path364" />
      <path
         d="m 2225.862,25.615366 6.5108,6.493136 6.4931,-6.511372 -6.5113,-6.493136 z"
         id="path366" />
      <path
         d="m 2262.6723,8.2126567 -13.025,-12.9807454 h -13.0084 l 26.0555,25.9725427 25.9725,-26.0554338 h -13.0084 z"
         id="path368" />
      <path
         d="m 2184.6771,25.692731 -12.9863,13.024954 0.028,13.008376 25.9724,-26.055434 -26.0555,-25.97254353 V 12.706459 Z"
         id="path370" />
      <path
         d="m 2178.1731,25.703783 -6.5154,-6.493136 v 13.008376 z"
         id="path372" />
      <path
         d="m 2214.9654,-4.7073019 -12.9807,13.024954 -13.0305,-12.9807454 h -13.0028 l 26.0554,25.9730953 25.9728,-26.0559864 z"
         id="path374" />
      <path
         d="m 2256.146,-4.7620101 6.5158,6.4931358 6.4925,-6.51524 z"
         id="path376" />
      <path
         d="m 2195.4586,-4.6730403 6.5153,6.4931358 6.493,-6.5152401 z"
         id="path378" />
      <path
         d="M 2293.0933,51.509991 V 38.507694 l -13.025,-12.986824 12.9808,-13.024954 V -0.50693384 L 2267.076,25.5485 Z"
         id="path380" />
      <path
         d="m 2286.5449,25.509818 6.5152,6.493136 v -13.00285 z"
         id="path382" />
      <path
         d="m 2379.8423,25.560105 -26.0554,-25.97254299 -25.9726,26.05543399 26.0555,25.972543 z m -25.9725,13.052585 -13.0471,-12.980746 12.9863,-13.03048 13.025,12.986271 z"
         id="path384" />
      <path
         d="m 2347.3369,25.615366 6.5108,6.493136 6.4931,-6.511372 -6.5113,-6.493136 z"
         id="path386" />
      <path
         d="m 2384.1472,8.2126567 -13.025,-12.9807454 h -13.0084 l 26.0555,25.9725427 25.9725,-26.0554338 h -13.0084 z"
         id="path388" />
      <path
         d="m 2306.152,25.692731 -12.9863,13.024954 0.028,13.008376 25.9724,-26.055434 -26.0555,-25.97254353 V 12.706459 Z"
         id="path390" />
      <path
         d="m 2299.648,25.703783 -6.5154,-6.493136 v 13.008376 z"
         id="path392" />
      <path
         d="m 2336.4403,-4.7073019 -12.9807,13.024954 -13.0305,-12.9807454 h -13.0028 l 26.0554,25.9730953 25.9728,-26.0559864 z"
         id="path394" />
      <path
         d="m 2377.6209,-4.7620101 6.5158,6.4931358 6.4925,-6.51524 z"
         id="path396" />
      <path
         d="m 2316.9335,-4.6730403 6.5153,6.4931358 6.493,-6.5152401 z"
         id="path398" />
      <path
         d="M 2414.5682,51.509991 V 38.507694 L 2401.5432,25.52087 2414.524,12.495916 V -0.50693384 L 2388.5509,25.5485 Z"
         id="path400" />
      <path
         d="m 2408.0198,25.509818 6.5152,6.493136 v -13.00285 z"
         id="path402" />
      <path
         d="m 2500.4085,25.560105 -26.0554,-25.97254299 -25.9726,26.05543399 26.0555,25.972543 z m -25.9725,13.052585 -13.0471,-12.980746 12.9863,-13.03048 13.025,12.986271 z"
         id="path404" />
      <path
         d="m 2467.9031,25.615366 6.5108,6.493136 6.4931,-6.511372 -6.5113,-6.493136 z"
         id="path406" />
      <path
         d="m 2504.7134,8.2126567 -13.025,-12.9807454 H 2478.68 l 26.0555,25.9725427 25.9725,-26.0554338 h -13.0084 z"
         id="path408" />
      <path
         d="m 2426.7182,25.692731 -12.9863,13.024954 0.028,13.008376 25.9724,-26.055434 -26.0555,-25.97254353 V 12.706459 Z"
         id="path410" />
      <path
         d="m 2420.2142,25.703783 -6.5154,-6.493136 v 13.008376 z"
         id="path412" />
      <path
         d="m 2457.0065,-4.7073019 -12.9807,13.024954 -13.0305,-12.9807454 h -13.0028 l 26.0554,25.9730953 25.9728,-26.0559864 z"
         id="path414" />
      <path
         d="m 2498.1871,-4.7620101 6.5158,6.4931358 6.4925,-6.51524 z"
         id="path416" />
      <path
         d="m 2437.4997,-4.6730403 6.5153,6.4931358 6.493,-6.5152401 z"
         id="path418" />
      <path
         d="M 2535.1344,51.509991 V 38.507694 l -13.025,-12.986824 12.9808,-13.024954 V -0.50693384 L 2509.1171,25.5485 Z"
         id="path420" />
      <path
         d="m 2528.586,25.509818 6.5152,6.493136 v -13.00285 z"
         id="path422" />
      <path
         d="m 2621.8107,25.315925 -26.0554,-25.97254299 -25.9726,26.05543399 26.0555,25.972543 z m -25.9725,13.052585 -13.0471,-12.980746 12.9863,-13.03048 13.025,12.986271 z"
         id="path424" />
      <path
         d="m 2589.3053,25.371186 6.5108,6.493136 6.4931,-6.511372 -6.5113,-6.493136 z"
         id="path426" />
      <path
         d="m 2626.1156,7.9684767 -13.025,-12.9807454 h -13.0084 l 26.0555,25.9725427 25.9725,-26.0554338 h -13.0084 z"
         id="path428" />
      <path
         d="m 2548.1204,25.448551 -12.9863,13.024954 0.028,13.008376 25.9724,-26.055434 -26.0555,-25.97254353 V 12.462279 Z"
         id="path430" />
      <path
         d="m 2541.6164,25.459603 -6.5154,-6.493136 v 13.008376 z"
         id="path432" />
      <path
         d="m 2578.4087,-4.9514819 -12.9807,13.024954 -13.0305,-12.9807454 h -13.0028 l 26.0554,25.9730953 25.9728,-26.0559864 z"
         id="path434" />
      <path
         d="m 2619.5893,-5.0061901 6.5158,6.4931358 6.4925,-6.51524 z"
         id="path436" />
      <path
         d="m 2558.9019,-4.9172203 6.5153,6.4931358 6.493,-6.5152401 z"
         id="path438" />
      <path
         d="M 2656.5366,51.265811 V 38.263514 l -13.025,-12.986824 12.9808,-13.024954 V -0.75111384 L 2630.5193,25.30432 Z"
         id="path440" />
      <path
         d="m 2649.9882,25.265638 6.5152,6.493136 v -13.00285 z"
         id="path442" />
    </g>
  </g>
</svg>
